<?xml version="1.0" standalone="no"?>
<!DOCTYPE svg PUBLIC "-//W3C//DTD SVG 20010904//EN"
 "http://www.w3.org/TR/2001/REC-SVG-20010904/DTD/svg10.dtd">
<svg version="1.0" xmlns="http://www.w3.org/2000/svg"
 width="500.000000pt" height="411.000000pt" viewBox="0 0 500.000000 411.000000"
 preserveAspectRatio="xMidYMid meet">

<g transform="translate(0.000000,411.000000) scale(0.100000,-0.100000)"
fill="#000000" stroke="none">
<path d="M2941 504 c0 -11 3 -14 6 -6 3 7 2 16 -1 19 -3 4 -6 -2 -5 -13z"/>
<path d="M1856 474 c-4 -20 -5 -38 -2 -41 2 -3 8 11 12 31 3 21 4 39 1 42 -2
3 -8 -11 -11 -32z"/>
<path d="M2400 490 c0 -11 2 -20 4 -20 2 0 6 9 9 20 3 11 1 20 -4 20 -5 0 -9
-9 -9 -20z"/>
<path d="M2448 487 c-3 -19 -2 -25 4 -19 6 6 8 18 6 28 -3 14 -5 12 -10 -9z"/>
<path d="M2582 490 c0 -14 2 -19 5 -12 2 6 2 18 0 25 -3 6 -5 1 -5 -13z"/>
<path d="M2650 495 c-1 -11 -5 -41 -9 -67 -4 -27 -4 -48 0 -48 9 0 23 104 16
122 -3 8 -6 5 -7 -7z"/>
<path d="M3196 495 c-3 -9 0 -15 9 -15 16 0 20 16 6 24 -5 3 -11 -1 -15 -9z"/>
<path d="M3276 502 c-3 -5 -1 -22 4 -38 8 -29 8 -29 9 9 1 36 -3 45 -13 29z"/>
<path d="M1914 472 c-6 -4 -14 -23 -18 -42 l-6 -35 11 30 c7 17 16 36 22 43
11 14 7 15 -9 4z"/>
<path d="M1964 472 c-13 -9 -35 -92 -24 -92 5 0 11 18 15 40 4 22 14 44 23 50
10 5 13 9 7 10 -5 0 -15 -4 -21 -8z"/>
<path d="M2134 455 c-9 -14 -14 -28 -11 -32 4 -3 11 6 17 21 6 17 14 24 22 20
7 -4 8 -3 4 4 -10 17 -13 15 -32 -13z"/>
<path d="M2191 480 c-1 -3 -4 -27 -6 -55 l-4 -50 10 40 c5 22 8 46 5 55 -2 8
-4 13 -5 10z"/>
<path d="M2239 463 c-13 -17 -13 -17 6 -3 11 8 22 16 24 17 2 2 0 3 -6 3 -6 0
-17 -8 -24 -17z"/>
<path d="M2325 471 c-3 -6 4 -9 15 -8 11 1 20 5 20 9 0 11 -28 10 -35 -1z"/>
<path d="M2522 438 c-12 -24 -22 -47 -22 -52 0 -5 -8 -19 -17 -30 -17 -20 -17
-20 0 -6 21 16 70 107 65 121 -2 5 -13 -10 -26 -33z"/>
<path d="M2700 470 c-8 -5 -12 -12 -9 -15 4 -3 12 1 19 10 14 17 11 19 -10 5z"/>
<path d="M2785 470 c-3 -6 1 -7 9 -4 18 7 21 14 7 14 -6 0 -13 -4 -16 -10z"/>
<path d="M2874 466 c-3 -8 -4 -25 -1 -38 3 -18 5 -16 6 9 1 21 7 33 19 36 16
4 16 5 -1 6 -10 0 -20 -5 -23 -13z"/>
<path d="M2944 472 c-14 -9 -35 -92 -23 -92 4 0 11 17 15 38 4 20 11 43 17 50
11 13 7 15 -9 4z"/>
<path d="M3035 469 c-11 -16 -1 -19 13 -3 7 8 8 14 3 14 -5 0 -13 -5 -16 -11z"/>
<path d="M3133 472 c-14 -9 -35 -92 -23 -92 4 0 10 16 13 36 3 20 14 42 24 50
19 14 7 19 -14 6z"/>
<path d="M3455 469 c-4 -6 -5 -12 -2 -15 2 -3 7 2 10 11 7 17 1 20 -8 4z"/>
<path d="M4218 473 c7 -3 16 -2 19 1 4 3 -2 6 -13 5 -11 0 -14 -3 -6 -6z"/>
<path d="M2001 447 c-1 -16 -6 -37 -11 -48 -7 -12 -7 -19 -1 -19 12 0 25 63
18 82 -3 7 -6 0 -6 -15z"/>
<path d="M2491 454 c0 -11 3 -14 6 -6 3 7 2 16 -1 19 -3 4 -6 -2 -5 -13z"/>
<path d="M2740 456 c0 -8 -12 -16 -27 -18 -14 -2 -28 -9 -29 -16 -1 -7 0 -8 3
-2 2 5 18 10 34 10 22 0 29 5 29 20 0 11 -2 20 -5 20 -3 0 -5 -6 -5 -14z"/>
<path d="M2818 433 c-3 -33 -7 -39 -33 -44 -30 -7 -29 -7 6 -8 36 -1 37 0 41
40 2 22 0 43 -4 45 -4 2 -8 -13 -10 -33z"/>
<path d="M3182 450 c0 -14 2 -19 5 -12 2 6 2 18 0 25 -3 6 -5 1 -5 -13z"/>
<path d="M3246 455 c-9 -26 -7 -32 5 -12 6 10 9 21 6 23 -2 3 -7 -2 -11 -11z"/>
<path d="M3595 459 c-4 -6 -5 -12 -2 -15 2 -3 7 2 10 11 7 17 1 20 -8 4z"/>
<path d="M3755 459 c-4 -6 -5 -12 -2 -15 2 -3 7 2 10 11 7 17 1 20 -8 4z"/>
<path d="M2082 433 c-3 -33 -9 -40 -42 -46 -18 -3 -15 -5 13 -6 29 -1 37 3 37
17 0 9 3 27 6 40 4 12 2 22 -3 22 -5 0 -10 -12 -11 -27z"/>
<path d="M2280 450 c0 -5 -11 -10 -24 -10 -14 0 -27 -4 -30 -8 -2 -4 11 -6 30
-4 20 3 34 10 34 18 0 8 -2 14 -5 14 -3 0 -5 -4 -5 -10z"/>
<path d="M2394 446 c-3 -8 -4 -23 -1 -33 3 -11 5 -7 6 11 1 21 5 27 17 22 8
-3 12 -2 9 4 -9 15 -25 12 -31 -4z"/>
<path d="M2576 448 c-13 -40 -15 -68 -7 -68 5 0 11 14 13 32 2 25 9 34 28 39
l25 7 -28 1 c-15 1 -29 -5 -31 -11z"/>
<path d="M2980 436 c0 -13 -3 -31 -6 -40 -3 -9 -2 -16 4 -16 5 0 12 18 14 40
2 22 0 40 -4 40 -5 0 -8 -11 -8 -24z"/>
<path d="M3080 450 c0 -5 -13 -10 -30 -10 -22 0 -30 -5 -29 -17 0 -11 3 -13 6
-5 2 6 18 12 34 12 19 0 29 5 29 15 0 8 -2 15 -5 15 -3 0 -5 -4 -5 -10z"/>
<path d="M3811 444 c0 -11 3 -14 6 -6 3 7 2 16 -1 19 -3 4 -6 -2 -5 -13z"/>
<path d="M2040 425 c-7 -9 -11 -17 -9 -20 3 -2 10 5 17 15 14 24 10 26 -8 5z"/>
<path d="M2442 416 c-7 -15 -21 -26 -39 -29 -27 -4 -26 -4 5 -6 27 -1 34 4 43
25 12 34 6 42 -9 10z"/>
<path d="M2780 425 c-7 -9 -11 -17 -9 -20 3 -2 10 5 17 15 14 24 10 26 -8 5z"/>
<path d="M3701 414 c0 -11 3 -14 6 -6 3 7 2 16 -1 19 -3 4 -6 -2 -5 -13z"/>
<path d="M2347 406 c-3 -8 -16 -16 -29 -19 -20 -4 -20 -4 5 -6 15 0 27 4 27
10 0 5 4 7 10 4 6 -3 7 1 4 9 -8 20 -10 20 -17 2z"/>
<path d="M3225 409 c-4 -6 -5 -12 -2 -15 2 -3 7 2 10 11 7 17 1 20 -8 4z"/>
<path d="M3267 401 c-4 -17 -3 -21 5 -13 5 5 8 16 6 23 -3 8 -7 3 -11 -10z"/>
<path d="M3537 406 c-3 -8 -16 -16 -29 -19 -21 -4 -21 -4 -2 -6 21 -1 52 24
42 35 -3 3 -8 -2 -11 -10z"/>
<path d="M3366 393 c-6 -14 -5 -15 5 -6 7 7 10 15 7 18 -3 3 -9 -2 -12 -12z"/>
<path d="M3576 395 c-3 -8 -1 -15 4 -15 6 0 10 7 10 15 0 8 -2 15 -4 15 -2 0
-6 -7 -10 -15z"/>
<path d="M3795 401 c-6 -5 -19 -11 -30 -14 -19 -4 -19 -5 1 -6 12 0 27 6 34
14 14 16 10 20 -5 6z"/>
<path d="M4080 394 c-17 -9 -20 -14 -9 -14 9 0 22 7 29 15 15 18 13 18 -20 -1z"/>
<path d="M4406 393 c-6 -14 -5 -15 5 -6 7 7 10 15 7 18 -3 3 -9 -2 -12 -12z"/>
<path d="M4456 395 c-3 -8 -1 -15 4 -15 6 0 10 7 10 15 0 8 -2 15 -4 15 -2 0
-6 -7 -10 -15z"/>
<path d="M2127 389 c7 -7 15 -10 18 -7 3 3 -2 9 -12 12 -14 6 -15 5 -6 -5z"/>
<path d="M3415 390 c-3 -5 -1 -10 4 -10 6 0 11 5 11 10 0 6 -2 10 -4 10 -3 0
-8 -4 -11 -10z"/>
<path d="M4000 390 c-23 -7 -23 -8 -3 -9 12 -1 25 4 28 9 3 6 5 10 3 9 -2 -1
-14 -5 -28 -9z"/>
<path d="M2243 383 c9 -2 23 -2 30 0 6 3 -1 5 -18 5 -16 0 -22 -2 -12 -5z"/>
<path d="M2693 383 c9 -2 25 -2 35 0 9 3 1 5 -18 5 -19 0 -27 -2 -17 -5z"/>
<path d="M2868 383 c7 -3 16 -2 19 1 4 3 -2 6 -13 5 -11 0 -14 -3 -6 -6z"/>
<path d="M3033 383 c9 -2 23 -2 30 0 6 3 -1 5 -18 5 -16 0 -22 -2 -12 -5z"/>
<path d="M3658 383 c7 -3 16 -2 19 1 4 3 -2 6 -13 5 -11 0 -14 -3 -6 -6z"/>
<path d="M4193 383 c9 -2 23 -2 30 0 6 3 -1 5 -18 5 -16 0 -22 -2 -12 -5z"/>
<path d="M4278 383 c7 -3 16 -2 19 1 4 3 -2 6 -13 5 -11 0 -14 -3 -6 -6z"/>
<path d="M2156 355 c-11 -8 -15 -15 -9 -15 6 0 16 7 23 15 16 19 11 19 -14 0z"/>
</g>
</svg>
