<svg id="visual" viewBox="0 0 960 540" width="960" height="540" xmlns="http://www.w3.org/2000/svg" xmlns:xlink="http://www.w3.org/1999/xlink" version="1.1"><rect x="0" y="0" width="960" height="540" fill="#6b5edc"></rect><path d="M0 318L14.5 318.3C29 318.7 58 319.3 87.2 330C116.3 340.7 145.7 361.3 174.8 371.5C204 381.7 233 381.3 262 374.8C291 368.3 320 355.7 349 357.3C378 359 407 375 436.2 384.8C465.3 394.7 494.7 398.3 523.8 388C553 377.7 582 353.3 611 340C640 326.7 669 324.3 698 323.3C727 322.3 756 322.7 785.2 334C814.3 345.3 843.7 367.7 872.8 367.3C902 367 931 344 945.5 332.5L960 321L960 541L945.5 541C931 541 902 541 872.8 541C843.7 541 814.3 541 785.2 541C756 541 727 541 698 541C669 541 640 541 611 541C582 541 553 541 523.8 541C494.7 541 465.3 541 436.2 541C407 541 378 541 349 541C320 541 291 541 262 541C233 541 204 541 174.8 541C145.7 541 116.3 541 87.2 541C58 541 29 541 14.5 541L0 541Z" fill="#7163de"></path><path d="M0 413L14.5 416.5C29 420 58 427 87.2 431.8C116.3 436.7 145.7 439.3 174.8 431.8C204 424.3 233 406.7 262 406.3C291 406 320 423 349 427.8C378 432.7 407 425.3 436.2 420C465.3 414.7 494.7 411.3 523.8 414.8C553 418.3 582 428.7 611 431.7C640 434.7 669 430.3 698 432.7C727 435 756 444 785.2 448.2C814.3 452.3 843.7 451.7 872.8 444C902 436.3 931 421.7 945.5 414.3L960 407L960 541L945.5 541C931 541 902 541 872.8 541C843.7 541 814.3 541 785.2 541C756 541 727 541 698 541C669 541 640 541 611 541C582 541 553 541 523.8 541C494.7 541 465.3 541 436.2 541C407 541 378 541 349 541C320 541 291 541 262 541C233 541 204 541 174.8 541C145.7 541 116.3 541 87.2 541C58 541 29 541 14.5 541L0 541Z" fill="#789df5"></path><path d="M0 449L14.5 449.8C29 450.7 58 452.3 87.2 454.7C116.3 457 145.7 460 174.8 464.8C204 469.7 233 476.3 262 481.5C291 486.7 320 490.3 349 487C378 483.7 407 473.3 436.2 475C465.3 476.7 494.7 490.3 523.8 489.7C553 489 582 474 611 471.2C640 468.3 669 477.7 698 475C727 472.3 756 457.7 785.2 459.2C814.3 460.7 843.7 478.3 872.8 481.2C902 484 931 472 945.5 466L960 460L960 541L945.5 541C931 541 902 541 872.8 541C843.7 541 814.3 541 785.2 541C756 541 727 541 698 541C669 541 640 541 611 541C582 541 553 541 523.8 541C494.7 541 465.3 541 436.2 541C407 541 378 541 349 541C320 541 291 541 262 541C233 541 204 541 174.8 541C145.7 541 116.3 541 87.2 541C58 541 29 541 14.5 541L0 541Z" fill="#a7cffe"></path></svg>